<svg id="visual" viewBox="0 0 900 600" width="900" height="600" xmlns="http://www.w3.org/2000/svg" xmlns:xlink="http://www.w3.org/1999/xlink" version="1.1"><g stroke-width="3" stroke-linejoin="bevel"><path d="M411 322L501 280L403 215Z" fill="#003676" stroke="#000000"></path><path d="M501 280L503 219L403 215Z" fill="#003e8c" stroke="#000000"></path><path d="M403 215L310 304L411 322Z" fill="#00244b" stroke="#000000"></path><path d="M503 219L438 125L403 215Z" fill="#0056d0" stroke="#000000"></path><path d="M403 215L266 224L310 304Z" fill="#005ee7" stroke="#000000"></path><path d="M516 402L587 269L501 280Z" fill="#0046a2" stroke="#000000"></path><path d="M501 280L587 269L503 219Z" fill="#0056d0" stroke="#000000"></path><path d="M503 219L538 122L438 125Z" fill="#0066ff" stroke="#000000"></path><path d="M402 436L516 402L411 322Z" fill="#0046a2" stroke="#000000"></path><path d="M411 322L516 402L501 280Z" fill="#004eb9" stroke="#000000"></path><path d="M587 269L563 165L503 219Z" fill="#0066ff" stroke="#000000"></path><path d="M282 379L402 436L411 322Z" fill="#001b36" stroke="#000000"></path><path d="M563 165L538 122L503 219Z" fill="#0056d0" stroke="#000000"></path><path d="M274 94L266 224L403 215Z" fill="#00244b" stroke="#000000"></path><path d="M234 365L282 379L310 304Z" fill="#002d60" stroke="#000000"></path><path d="M310 304L282 379L411 322Z" fill="#00244b" stroke="#000000"></path><path d="M516 402L633 364L587 269Z" fill="#0046a2" stroke="#000000"></path><path d="M587 269L624 139L563 165Z" fill="#001122" stroke="#000000"></path><path d="M274 94L230 190L266 224Z" fill="#001b36" stroke="#000000"></path><path d="M174 269L234 365L310 304Z" fill="#004eb9" stroke="#000000"></path><path d="M688 235L624 139L587 269Z" fill="#001b36" stroke="#000000"></path><path d="M563 165L624 139L538 122Z" fill="#001122" stroke="#000000"></path><path d="M174 269L310 304L266 224Z" fill="#0066ff" stroke="#000000"></path><path d="M317 515L368 517L402 436Z" fill="#003676" stroke="#000000"></path><path d="M375 0L274 94L438 125Z" fill="#005ee7" stroke="#000000"></path><path d="M438 125L274 94L403 215Z" fill="#001b36" stroke="#000000"></path><path d="M700 271L688 235L587 269Z" fill="#0046a2" stroke="#000000"></path><path d="M516 402L585 474L633 364Z" fill="#00244b" stroke="#000000"></path><path d="M538 519L585 474L516 402Z" fill="#002d60" stroke="#000000"></path><path d="M573 0L499 0L538 122Z" fill="#0056d0" stroke="#000000"></path><path d="M688 235L664 139L624 139Z" fill="#001b36" stroke="#000000"></path><path d="M633 364L700 271L587 269Z" fill="#0066ff" stroke="#000000"></path><path d="M688 235L782 90L664 139Z" fill="#002d60" stroke="#000000"></path><path d="M767 376L700 271L633 364Z" fill="#0056d0" stroke="#000000"></path><path d="M317 515L402 436L282 379Z" fill="#001b36" stroke="#000000"></path><path d="M402 436L538 519L516 402Z" fill="#002d60" stroke="#000000"></path><path d="M230 190L174 269L266 224Z" fill="#002d60" stroke="#000000"></path><path d="M130 278L174 269L108 185Z" fill="#0046a2" stroke="#000000"></path><path d="M368 517L538 519L402 436Z" fill="#003676" stroke="#000000"></path><path d="M573 0L538 122L624 139Z" fill="#0046a2" stroke="#000000"></path><path d="M538 122L499 0L438 125Z" fill="#003e8c" stroke="#000000"></path><path d="M499 0L375 0L438 125Z" fill="#00244b" stroke="#000000"></path><path d="M236 538L317 515L282 379Z" fill="#003e8c" stroke="#000000"></path><path d="M236 538L282 379L234 365Z" fill="#001b36" stroke="#000000"></path><path d="M224 0L199 107L274 94Z" fill="#0066ff" stroke="#000000"></path><path d="M274 94L199 107L230 190Z" fill="#004eb9" stroke="#000000"></path><path d="M706 0L573 0L624 139Z" fill="#0066ff" stroke="#000000"></path><path d="M108 185L174 269L230 190Z" fill="#0056d0" stroke="#000000"></path><path d="M174 269L130 278L234 365Z" fill="#001122" stroke="#000000"></path><path d="M375 0L261 0L274 94Z" fill="#0066ff" stroke="#000000"></path><path d="M726 526L723 425L585 474Z" fill="#003e8c" stroke="#000000"></path><path d="M585 474L723 425L633 364Z" fill="#005ee7" stroke="#000000"></path><path d="M368 517L414 600L538 519Z" fill="#001122" stroke="#000000"></path><path d="M538 519L608 600L585 474Z" fill="#00244b" stroke="#000000"></path><path d="M334 600L414 600L368 517Z" fill="#004eb9" stroke="#000000"></path><path d="M81 380L236 538L234 365Z" fill="#0066ff" stroke="#000000"></path><path d="M317 515L334 600L368 517Z" fill="#002d60" stroke="#000000"></path><path d="M414 600L505 600L538 519Z" fill="#0046a2" stroke="#000000"></path><path d="M87 136L108 185L199 107Z" fill="#0046a2" stroke="#000000"></path><path d="M199 107L108 185L230 190Z" fill="#003676" stroke="#000000"></path><path d="M261 0L224 0L274 94Z" fill="#003676" stroke="#000000"></path><path d="M723 425L767 376L633 364Z" fill="#003e8c" stroke="#000000"></path><path d="M700 271L833 220L688 235Z" fill="#004eb9" stroke="#000000"></path><path d="M236 538L334 600L317 515Z" fill="#003e8c" stroke="#000000"></path><path d="M767 376L792 312L700 271Z" fill="#003e8c" stroke="#000000"></path><path d="M664 139L706 0L624 139Z" fill="#001b36" stroke="#000000"></path><path d="M723 425L835 499L767 376Z" fill="#0066ff" stroke="#000000"></path><path d="M505 600L608 600L538 519Z" fill="#001122" stroke="#000000"></path><path d="M130 0L87 136L199 107Z" fill="#003e8c" stroke="#000000"></path><path d="M0 277L81 380L130 278Z" fill="#002d60" stroke="#000000"></path><path d="M0 277L130 278L0 220Z" fill="#0046a2" stroke="#000000"></path><path d="M130 278L81 380L234 365Z" fill="#001b36" stroke="#000000"></path><path d="M782 90L706 0L664 139Z" fill="#0066ff" stroke="#000000"></path><path d="M833 220L782 90L688 235Z" fill="#0056d0" stroke="#000000"></path><path d="M670 600L726 526L585 474Z" fill="#003676" stroke="#000000"></path><path d="M900 389L900 323L792 312Z" fill="#0066ff" stroke="#000000"></path><path d="M900 323L833 220L792 312Z" fill="#001122" stroke="#000000"></path><path d="M792 312L833 220L700 271Z" fill="#0056d0" stroke="#000000"></path><path d="M608 600L670 600L585 474Z" fill="#005ee7" stroke="#000000"></path><path d="M224 0L130 0L199 107Z" fill="#001b36" stroke="#000000"></path><path d="M900 76L772 0L782 90Z" fill="#004eb9" stroke="#000000"></path><path d="M782 90L772 0L706 0Z" fill="#001122" stroke="#000000"></path><path d="M78 535L174 600L236 538Z" fill="#00244b" stroke="#000000"></path><path d="M236 538L174 600L334 600Z" fill="#00244b" stroke="#000000"></path><path d="M0 220L130 278L108 185Z" fill="#005ee7" stroke="#000000"></path><path d="M81 380L78 535L236 538Z" fill="#004eb9" stroke="#000000"></path><path d="M0 220L108 185L87 136Z" fill="#003e8c" stroke="#000000"></path><path d="M0 134L0 220L87 136Z" fill="#0046a2" stroke="#000000"></path><path d="M0 486L78 535L81 380Z" fill="#0046a2" stroke="#000000"></path><path d="M78 535L134 600L174 600Z" fill="#001b36" stroke="#000000"></path><path d="M825 600L835 499L726 526Z" fill="#003e8c" stroke="#000000"></path><path d="M726 526L835 499L723 425Z" fill="#0066ff" stroke="#000000"></path><path d="M0 0L0 134L87 136Z" fill="#00244b" stroke="#000000"></path><path d="M0 277L0 406L81 380Z" fill="#003e8c" stroke="#000000"></path><path d="M900 389L792 312L767 376Z" fill="#001122" stroke="#000000"></path><path d="M833 220L900 187L782 90Z" fill="#001122" stroke="#000000"></path><path d="M900 323L900 187L833 220Z" fill="#005ee7" stroke="#000000"></path><path d="M835 499L900 389L767 376Z" fill="#001122" stroke="#000000"></path><path d="M0 406L0 486L81 380Z" fill="#001122" stroke="#000000"></path><path d="M78 535L0 600L134 600Z" fill="#003e8c" stroke="#000000"></path><path d="M900 187L900 76L782 90Z" fill="#005ee7" stroke="#000000"></path><path d="M670 600L825 600L726 526Z" fill="#001b36" stroke="#000000"></path><path d="M835 499L900 491L900 389Z" fill="#00244b" stroke="#000000"></path><path d="M900 600L900 491L835 499Z" fill="#003676" stroke="#000000"></path><path d="M130 0L0 0L87 136Z" fill="#00244b" stroke="#000000"></path><path d="M900 76L900 0L772 0Z" fill="#0046a2" stroke="#000000"></path><path d="M0 486L0 600L78 535Z" fill="#001122" stroke="#000000"></path><path d="M825 600L900 600L835 499Z" fill="#003e8c" stroke="#000000"></path></g></svg>