<svg id="visual" viewBox="0 0 900 675" width="900" height="675" xmlns="http://www.w3.org/2000/svg" xmlns:xlink="http://www.w3.org/1999/xlink" version="1.1"><g stroke-width="1" stroke-linejoin="bevel"><path d="M433 346.7L467 292.3L386 265.3Z" fill="#9d00ff" stroke="#000000"></path><path d="M467 292.3L430 230.9L386 265.3Z" fill="#201339" stroke="#000000"></path><path d="M335 201.9L332 287.3L386 265.3Z" fill="#651eb2" stroke="#000000"></path><path d="M386 265.3L332 287.3L433 346.7Z" fill="#651eb2" stroke="#000000"></path><path d="M433 346.7L522 376.7L467 292.3Z" fill="#9d00ff" stroke="#000000"></path><path d="M467 292.3L524 163.9L430 230.9Z" fill="#651eb2" stroke="#000000"></path><path d="M430 230.9L335 201.9L386 265.3Z" fill="#8914e5" stroke="#000000"></path><path d="M598 179.9L524 163.9L467 292.3Z" fill="#9d00ff" stroke="#000000"></path><path d="M430 230.9L378 106.4L335 201.9Z" fill="#9d00ff" stroke="#000000"></path><path d="M271 401.7L333 456.1L433 346.7Z" fill="#201339" stroke="#000000"></path><path d="M433 346.7L539 477.1L522 376.7Z" fill="#761bcc" stroke="#000000"></path><path d="M217 253.3L271 401.7L332 287.3Z" fill="#8914e5" stroke="#000000"></path><path d="M332 287.3L271 401.7L433 346.7Z" fill="#9d00ff" stroke="#000000"></path><path d="M522 376.7L603 317.3L467 292.3Z" fill="#05000c" stroke="#000000"></path><path d="M598 179.9L509 133.4L524 163.9Z" fill="#160c23" stroke="#000000"></path><path d="M524 163.9L509 133.4L430 230.9Z" fill="#160c23" stroke="#000000"></path><path d="M509 133.4L378 106.4L430 230.9Z" fill="#651eb2" stroke="#000000"></path><path d="M179 218.9L217 253.3L263 92.4Z" fill="#201339" stroke="#000000"></path><path d="M335 201.9L217 253.3L332 287.3Z" fill="#05000c" stroke="#000000"></path><path d="M564 466.1L606 393.7L522 376.7Z" fill="#201339" stroke="#000000"></path><path d="M522 376.7L606 393.7L603 317.3Z" fill="#8914e5" stroke="#000000"></path><path d="M386 518.1L539 477.1L433 346.7Z" fill="#8914e5" stroke="#000000"></path><path d="M603 317.3L598 179.9L467 292.3Z" fill="#651eb2" stroke="#000000"></path><path d="M634 76.4L598 179.9L681 92.4Z" fill="#05000c" stroke="#000000"></path><path d="M539 477.1L564 466.1L522 376.7Z" fill="#2c1750" stroke="#000000"></path><path d="M238 513.1L386 518.1L333 456.1Z" fill="#201339" stroke="#000000"></path><path d="M333 456.1L386 518.1L433 346.7Z" fill="#8914e5" stroke="#000000"></path><path d="M217 253.3L222 412.7L271 401.7Z" fill="#8914e5" stroke="#000000"></path><path d="M271 401.7L238 513.1L333 456.1Z" fill="#8914e5" stroke="#000000"></path><path d="M263 92.4L217 253.3L335 201.9Z" fill="#2c1750" stroke="#000000"></path><path d="M217 253.3L127 396.7L222 412.7Z" fill="#201339" stroke="#000000"></path><path d="M378 106.4L263 92.4L335 201.9Z" fill="#9d00ff" stroke="#000000"></path><path d="M336 614.6L409 575.6L386 518.1Z" fill="#05000c" stroke="#000000"></path><path d="M386 518.1L510 587.6L539 477.1Z" fill="#9d00ff" stroke="#000000"></path><path d="M539 477.1L581 551.6L564 466.1Z" fill="#551e99" stroke="#000000"></path><path d="M82 475.1L238 513.1L222 412.7Z" fill="#160c23" stroke="#000000"></path><path d="M222 412.7L238 513.1L271 401.7Z" fill="#2c1750" stroke="#000000"></path><path d="M263 92.4L219 89.4L179 218.9Z" fill="#05000c" stroke="#000000"></path><path d="M510 587.6L581 551.6L539 477.1Z" fill="#201339" stroke="#000000"></path><path d="M706 491.1L733 383.7L606 393.7Z" fill="#8914e5" stroke="#000000"></path><path d="M474 0L378 106.4L509 133.4Z" fill="#05000c" stroke="#000000"></path><path d="M474 0L426 0L378 106.4Z" fill="#761bcc" stroke="#000000"></path><path d="M378 106.4L281 0L263 92.4Z" fill="#381a68" stroke="#000000"></path><path d="M263 92.4L281 0L219 89.4Z" fill="#2c1750" stroke="#000000"></path><path d="M409 575.6L510 587.6L386 518.1Z" fill="#461d80" stroke="#000000"></path><path d="M568 0L474 0L509 133.4Z" fill="#651eb2" stroke="#000000"></path><path d="M65 315.3L127 396.7L217 253.3Z" fill="#651eb2" stroke="#000000"></path><path d="M735 316.3L598 179.9L603 317.3Z" fill="#761bcc" stroke="#000000"></path><path d="M598 179.9L634 76.4L509 133.4Z" fill="#201339" stroke="#000000"></path><path d="M733 383.7L603 317.3L606 393.7Z" fill="#551e99" stroke="#000000"></path><path d="M733 383.7L735 316.3L603 317.3Z" fill="#551e99" stroke="#000000"></path><path d="M735 316.3L700 152.9L598 179.9Z" fill="#2c1750" stroke="#000000"></path><path d="M706 491.1L606 393.7L564 466.1Z" fill="#381a68" stroke="#000000"></path><path d="M238 513.1L336 614.6L386 518.1Z" fill="#381a68" stroke="#000000"></path><path d="M409 575.6L477 675L510 587.6Z" fill="#651eb2" stroke="#000000"></path><path d="M426 0L281 0L378 106.4Z" fill="#8914e5" stroke="#000000"></path><path d="M700 152.9L681 92.4L598 179.9Z" fill="#2c1750" stroke="#000000"></path><path d="M634 76.4L568 0L509 133.4Z" fill="#551e99" stroke="#000000"></path><path d="M717 0L568 0L634 76.4Z" fill="#651eb2" stroke="#000000"></path><path d="M716 562.6L706 491.1L581 551.6Z" fill="#160c23" stroke="#000000"></path><path d="M581 551.6L706 491.1L564 466.1Z" fill="#551e99" stroke="#000000"></path><path d="M82 475.1L204 576.6L238 513.1Z" fill="#761bcc" stroke="#000000"></path><path d="M238 513.1L204 576.6L336 614.6Z" fill="#381a68" stroke="#000000"></path><path d="M179 218.9L65 315.3L217 253.3Z" fill="#651eb2" stroke="#000000"></path><path d="M127 396.7L82 475.1L222 412.7Z" fill="#05000c" stroke="#000000"></path><path d="M83 158.9L65 315.3L179 218.9Z" fill="#2c1750" stroke="#000000"></path><path d="M700 152.9L805 69.4L681 92.4Z" fill="#461d80" stroke="#000000"></path><path d="M735 316.3L762 198.9L700 152.9Z" fill="#8914e5" stroke="#000000"></path><path d="M817 320.3L762 198.9L735 316.3Z" fill="#551e99" stroke="#000000"></path><path d="M706 491.1L764 409.7L733 383.7Z" fill="#160c23" stroke="#000000"></path><path d="M733 383.7L817 320.3L735 316.3Z" fill="#05000c" stroke="#000000"></path><path d="M73 96.4L83 158.9L219 89.4Z" fill="#551e99" stroke="#000000"></path><path d="M219 89.4L83 158.9L179 218.9Z" fill="#381a68" stroke="#000000"></path><path d="M281 0L197 0L219 89.4Z" fill="#2c1750" stroke="#000000"></path><path d="M336 614.6L394 675L409 575.6Z" fill="#05000c" stroke="#000000"></path><path d="M510 587.6L622 675L581 551.6Z" fill="#461d80" stroke="#000000"></path><path d="M322 675L394 675L336 614.6Z" fill="#201339" stroke="#000000"></path><path d="M394 675L477 675L409 575.6Z" fill="#160c23" stroke="#000000"></path><path d="M0 361.7L82 475.1L127 396.7Z" fill="#05000c" stroke="#000000"></path><path d="M179 675L322 675L204 576.6Z" fill="#761bcc" stroke="#000000"></path><path d="M204 576.6L322 675L336 614.6Z" fill="#160c23" stroke="#000000"></path><path d="M777 562.6L769 473.1L706 491.1Z" fill="#551e99" stroke="#000000"></path><path d="M706 491.1L769 473.1L764 409.7Z" fill="#761bcc" stroke="#000000"></path><path d="M764 409.7L817 320.3L733 383.7Z" fill="#9d00ff" stroke="#000000"></path><path d="M622 675L716 562.6L581 551.6Z" fill="#461d80" stroke="#000000"></path><path d="M900 327.3L817 320.3L900 365.7Z" fill="#9d00ff" stroke="#000000"></path><path d="M92 0L73 96.4L219 89.4Z" fill="#8914e5" stroke="#000000"></path><path d="M0 171.9L0 326.3L65 315.3Z" fill="#05000c" stroke="#000000"></path><path d="M65 315.3L0 361.7L127 396.7Z" fill="#381a68" stroke="#000000"></path><path d="M0 171.9L65 315.3L83 158.9Z" fill="#2c1750" stroke="#000000"></path><path d="M805 69.4L700 152.9L762 198.9Z" fill="#551e99" stroke="#000000"></path><path d="M805 69.4L717 0L681 92.4Z" fill="#761bcc" stroke="#000000"></path><path d="M681 92.4L717 0L634 76.4Z" fill="#651eb2" stroke="#000000"></path><path d="M0 326.3L0 361.7L65 315.3Z" fill="#651eb2" stroke="#000000"></path><path d="M477 675L622 675L510 587.6Z" fill="#9d00ff" stroke="#000000"></path><path d="M73 96.4L0 171.9L83 158.9Z" fill="#201339" stroke="#000000"></path><path d="M82 475.1L87 593.6L204 576.6Z" fill="#8914e5" stroke="#000000"></path><path d="M0 579.6L87 593.6L82 475.1Z" fill="#8914e5" stroke="#000000"></path><path d="M800 675L777 562.6L716 562.6Z" fill="#2c1750" stroke="#000000"></path><path d="M716 562.6L777 562.6L706 491.1Z" fill="#8914e5" stroke="#000000"></path><path d="M900 365.7L817 320.3L764 409.7Z" fill="#551e99" stroke="#000000"></path><path d="M197 0L92 0L219 89.4Z" fill="#651eb2" stroke="#000000"></path><path d="M73 96.4L0 81.4L0 171.9Z" fill="#551e99" stroke="#000000"></path><path d="M87 593.6L179 675L204 576.6Z" fill="#8914e5" stroke="#000000"></path><path d="M900 191.9L805 69.4L762 198.9Z" fill="#9d00ff" stroke="#000000"></path><path d="M0 361.7L0 470.1L82 475.1Z" fill="#381a68" stroke="#000000"></path><path d="M622 675L681 675L716 562.6Z" fill="#201339" stroke="#000000"></path><path d="M92 0L0 81.4L73 96.4Z" fill="#551e99" stroke="#000000"></path><path d="M900 365.7L764 409.7L769 473.1Z" fill="#05000c" stroke="#000000"></path><path d="M817 320.3L900 191.9L762 198.9Z" fill="#9d00ff" stroke="#000000"></path><path d="M900 515.1L900 365.7L769 473.1Z" fill="#160c23" stroke="#000000"></path><path d="M900 327.3L900 191.9L817 320.3Z" fill="#551e99" stroke="#000000"></path><path d="M900 70.4L814 0L805 69.4Z" fill="#160c23" stroke="#000000"></path><path d="M805 69.4L814 0L717 0Z" fill="#651eb2" stroke="#000000"></path><path d="M0 470.1L0 579.6L82 475.1Z" fill="#461d80" stroke="#000000"></path><path d="M87 593.6L77 675L179 675Z" fill="#461d80" stroke="#000000"></path><path d="M0 675L77 675L87 593.6Z" fill="#381a68" stroke="#000000"></path><path d="M92 0L0 0L0 81.4Z" fill="#551e99" stroke="#000000"></path><path d="M900 579.6L900 515.1L777 562.6Z" fill="#381a68" stroke="#000000"></path><path d="M777 562.6L900 515.1L769 473.1Z" fill="#8914e5" stroke="#000000"></path><path d="M900 191.9L900 70.4L805 69.4Z" fill="#2c1750" stroke="#000000"></path><path d="M681 675L800 675L716 562.6Z" fill="#9d00ff" stroke="#000000"></path><path d="M800 675L900 579.6L777 562.6Z" fill="#05000c" stroke="#000000"></path><path d="M0 579.6L0 675L87 593.6Z" fill="#651eb2" stroke="#000000"></path><path d="M900 70.4L900 0L814 0Z" fill="#201339" stroke="#000000"></path><path d="M800 675L900 675L900 579.6Z" fill="#551e99" stroke="#000000"></path></g></svg>