<svg id="visual" viewBox="0 0 1920 1080" width="1920" height="1080" xmlns="http://www.w3.org/2000/svg" xmlns:xlink="http://www.w3.org/1999/xlink" version="1.1"><rect x="0" y="0" width="1920" height="1080" fill="#FFFFFF"></rect><defs><linearGradient id="grad1_0" x1="43.8%" y1="100%" x2="100%" y2="0%"><stop offset="14.444444444444446%" stop-color="#ffffff" stop-opacity="1"></stop><stop offset="85.55555555555554%" stop-color="#ffffff" stop-opacity="1"></stop></linearGradient></defs><defs><linearGradient id="grad2_0" x1="0%" y1="100%" x2="56.3%" y2="0%"><stop offset="14.444444444444446%" stop-color="#ffffff" stop-opacity="1"></stop><stop offset="85.55555555555554%" stop-color="#ffffff" stop-opacity="1"></stop></linearGradient></defs><g transform="translate(1920, 1080)"><path d="M-702 0C-700.2 -101.6 -698.3 -203.2 -645.8 -267.5C-593.3 -331.8 -490 -359 -425 -425C-359.9 -491 -333.1 -595.9 -268.6 -648.6C-204.2 -701.2 -102.1 -701.6 0 -702L0 0Z" fill="#9D00FF"></path></g><g transform="translate(0, 0)"><path d="M702 0C673.9 85.2 645.9 170.4 614.4 254.5C582.9 338.5 547.9 421.5 490.7 490.7C433.5 560 354.1 615.6 268.6 648.6C183.2 681.5 91.6 691.8 0 702L0 0Z" fill="#9D00FF"></path></g></svg>