<svg id="visual" viewBox="0 0 675 900" width="675" height="900" xmlns="http://www.w3.org/2000/svg" xmlns:xlink="http://www.w3.org/1999/xlink" version="1.1"><rect x="0" y="0" width="675" height="900" fill="#FFFFFF"></rect><defs><linearGradient id="grad1_0" x1="0%" y1="100%" x2="100%" y2="0%"><stop offset="30%" stop-color="#ffffff" stop-opacity="1"></stop><stop offset="70%" stop-color="#ffffff" stop-opacity="1"></stop></linearGradient></defs><defs><linearGradient id="grad2_0" x1="0%" y1="100%" x2="100%" y2="0%"><stop offset="30%" stop-color="#ffffff" stop-opacity="1"></stop><stop offset="70%" stop-color="#ffffff" stop-opacity="1"></stop></linearGradient></defs><g transform="translate(675, 900)"><path d="M-365.6 0C-326.1 -33.8 -286.7 -67.6 -274.4 -113.7C-262.1 -159.7 -277.1 -218.1 -258.5 -258.5C-240 -299 -188 -321.4 -139.3 -336.3C-90.6 -351.1 -45.3 -358.4 0 -365.6L0 0Z" fill="#9D00FF"></path></g><g transform="translate(0, 0)"><path d="M365.6 0C338.4 37.6 311.2 75.3 298.4 123.6C285.7 171.9 287.4 231 258.5 258.5C229.7 286.1 170.3 282.1 122.1 294.7C73.9 307.3 36.9 336.5 0 365.6L0 0Z" fill="#9D00FF"></path></g></svg>