<svg id="visual" viewBox="0 0 1920 1080" width="1920" height="1080" xmlns="http://www.w3.org/2000/svg" xmlns:xlink="http://www.w3.org/1999/xlink" version="1.1"><rect x="0" y="0" width="1920" height="1080" fill="#fff"></rect><defs><linearGradient id="grad1_0" x1="43.8%" y1="0%" x2="100%" y2="100%"><stop offset="14.444444444444446%" stop-color="#ffffff" stop-opacity="1"></stop><stop offset="85.55555555555554%" stop-color="#ffffff" stop-opacity="1"></stop></linearGradient></defs><defs><linearGradient id="grad2_0" x1="0%" y1="0%" x2="56.3%" y2="100%"><stop offset="14.444444444444446%" stop-color="#ffffff" stop-opacity="1"></stop><stop offset="85.55555555555554%" stop-color="#ffffff" stop-opacity="1"></stop></linearGradient></defs><g transform="translate(1920, 0)"><path d="M0 594C-68.2 562.2 -136.5 530.5 -209.7 506.3C-282.9 482.1 -361.2 465.5 -420 420C-478.9 374.6 -518.4 300.2 -544.2 225.4C-569.9 150.6 -582 75.3 -594 0L0 0Z" fill="#9d00ff"></path></g><g transform="translate(0, 1080)"><path d="M0 -594C87.9 -595.9 175.7 -597.8 227.3 -548.8C278.9 -499.7 294.2 -399.8 340.1 -340.1C386 -280.5 462.6 -261.2 510 -211.2C557.4 -161.3 575.7 -80.6 594 0L0 0Z" fill="#9d00ff"></path></g></svg>