<svg id="visual" viewBox="0 0 600 900" width="600" height="900" xmlns="http://www.w3.org/2000/svg" xmlns:xlink="http://www.w3.org/1999/xlink" version="1.1"><rect x="0" y="0" width="600" height="900" fill="#fff"></rect><defs><linearGradient id="grad1_0" x1="0%" y1="0%" x2="100%" y2="100%"><stop offset="30%" stop-color="#ffffff" stop-opacity="1"></stop><stop offset="70%" stop-color="#ffffff" stop-opacity="1"></stop></linearGradient></defs><defs><linearGradient id="grad2_0" x1="0%" y1="0%" x2="100%" y2="100%"><stop offset="30%" stop-color="#ffffff" stop-opacity="1"></stop><stop offset="70%" stop-color="#ffffff" stop-opacity="1"></stop></linearGradient></defs><g transform="translate(600, 0)"><path d="M0 297.5C-30.8 276.3 -61.6 255.1 -101.4 244.8C-141.2 234.5 -190.1 235.1 -210.3 210.3C-230.6 185.5 -222.1 135.3 -231.9 96.1C-241.6 56.8 -269.5 28.4 -297.5 0L0 0Z" fill="#9d00ff"></path></g><g transform="translate(0, 900)"><path d="M0 -297.5C32.1 -268.6 64.2 -239.7 90.7 -219C117.2 -198.2 138.2 -185.7 171.8 -171.8C205.5 -157.9 251.8 -142.7 274.8 -113.8C297.9 -85 297.7 -42.5 297.5 0L0 0Z" fill="#9d00ff"></path></g></svg>