<svg id="visual" viewBox="0 0 900 675" width="900" height="675" xmlns="http://www.w3.org/2000/svg" xmlns:xlink="http://www.w3.org/1999/xlink" version="1.1"><rect x="0" y="0" width="900" height="675" fill="#001220"></rect><defs><linearGradient id="grad1_0" x1="25%" y1="0%" x2="100%" y2="100%"><stop offset="23.333333333333336%" stop-color="#001220" stop-opacity="1"></stop><stop offset="76.66666666666666%" stop-color="#001220" stop-opacity="1"></stop></linearGradient></defs><defs><linearGradient id="grad2_0" x1="0%" y1="0%" x2="75%" y2="100%"><stop offset="23.333333333333336%" stop-color="#001220" stop-opacity="1"></stop><stop offset="76.66666666666666%" stop-color="#001220" stop-opacity="1"></stop></linearGradient></defs><g transform="translate(900, 0)"><path d="M0 393.8C-57.6 394.9 -115.2 396 -150.7 363.8C-186.1 331.6 -199.5 266.1 -224.2 224.2C-248.8 182.2 -284.9 163.9 -315 130.5C-345.2 97.1 -369.5 48.5 -393.7 0L0 0Z" fill="#b13cfa"></path></g><g transform="translate(0, 675)"><path d="M0 -393.7C39.2 -361.1 78.3 -328.4 130.5 -315C182.6 -301.7 247.8 -307.8 278.4 -278.4C309.1 -249.1 305.3 -184.3 318.7 -132C332.2 -79.7 363 -39.9 393.8 0L0 0Z" fill="#b13cfa"></path></g></svg>