<svg id="visual" viewBox="0 0 900 675" width="900" height="675" xmlns="http://www.w3.org/2000/svg" xmlns:xlink="http://www.w3.org/1999/xlink" version="1.1"><rect x="0" y="0" width="900" height="675" fill="#cee9f7"></rect><path d="M0 527L10 528.8C20 530.7 40 534.3 60 546.3C80 558.3 100 578.7 120 581C140 583.3 160 567.7 180 562.8C200 558 220 564 240 568.7C260 573.3 280 576.7 300 583.2C320 589.7 340 599.3 360 602.5C380 605.7 400 602.3 420 588.3C440 574.3 460 549.7 480 547.3C500 545 520 565 540 576.3C560 587.7 580 590.3 600 582C620 573.7 640 554.3 660 550.2C680 546 700 557 720 555.2C740 553.3 760 538.7 780 538.3C800 538 820 552 840 559C860 566 880 566 890 566L900 566L900 676L890 676C880 676 860 676 840 676C820 676 800 676 780 676C760 676 740 676 720 676C700 676 680 676 660 676C640 676 620 676 600 676C580 676 560 676 540 676C520 676 500 676 480 676C460 676 440 676 420 676C400 676 380 676 360 676C340 676 320 676 300 676C280 676 260 676 240 676C220 676 200 676 180 676C160 676 140 676 120 676C100 676 80 676 60 676C40 676 20 676 10 676L0 676Z" fill="#0066FF" stroke-linecap="round" stroke-linejoin="miter"></path></svg>