<svg id="visual" viewBox="0 0 1920 1080" width="1920" height="1080" xmlns="http://www.w3.org/2000/svg" xmlns:xlink="http://www.w3.org/1999/xlink" version="1.1"><path d="M0 271L175 271L175 379L349 379L349 282L524 282L524 401L698 401L698 303L873 303L873 228L1047 228L1047 368L1222 368L1222 249L1396 249L1396 357L1571 357L1571 260L1745 260L1745 401L1920 401L1920 368L1920 0L1920 0L1745 0L1745 0L1571 0L1571 0L1396 0L1396 0L1222 0L1222 0L1047 0L1047 0L873 0L873 0L698 0L698 0L524 0L524 0L349 0L349 0L175 0L175 0L0 0Z" fill="#c669fa"></path><path d="M0 357L175 357L175 476L349 476L349 444L524 444L524 552L698 552L698 433L873 433L873 357L1047 357L1047 465L1222 465L1222 379L1396 379L1396 465L1571 465L1571 401L1745 401L1745 487L1920 487L1920 487L1920 366L1920 399L1745 399L1745 258L1571 258L1571 355L1396 355L1396 247L1222 247L1222 366L1047 366L1047 226L873 226L873 301L698 301L698 399L524 399L524 280L349 280L349 377L175 377L175 269L0 269Z" fill="#974dc8"></path><path d="M0 509L175 509L175 735L349 735L349 649L524 649L524 735L698 735L698 595L873 595L873 541L1047 541L1047 606L1222 606L1222 573L1396 573L1396 617L1571 617L1571 584L1745 584L1745 681L1920 681L1920 617L1920 485L1920 485L1745 485L1745 399L1571 399L1571 463L1396 463L1396 377L1222 377L1222 463L1047 463L1047 355L873 355L873 431L698 431L698 550L524 550L524 442L349 442L349 474L175 474L175 355L0 355Z" fill="#6b3297"></path><path d="M0 692L175 692L175 887L349 887L349 768L524 768L524 854L698 854L698 725L873 725L873 692L1047 692L1047 735L1222 735L1222 714L1396 714L1396 725L1571 725L1571 746L1745 746L1745 843L1920 843L1920 779L1920 615L1920 679L1745 679L1745 582L1571 582L1571 615L1396 615L1396 571L1222 571L1222 604L1047 604L1047 539L873 539L873 593L698 593L698 733L524 733L524 647L349 647L349 733L175 733L175 507L0 507Z" fill="#431868"></path><path d="M0 1081L175 1081L175 1081L349 1081L349 1081L524 1081L524 1081L698 1081L698 1081L873 1081L873 1081L1047 1081L1047 1081L1222 1081L1222 1081L1396 1081L1396 1081L1571 1081L1571 1081L1745 1081L1745 1081L1920 1081L1920 1081L1920 777L1920 841L1745 841L1745 744L1571 744L1571 723L1396 723L1396 712L1222 712L1222 733L1047 733L1047 690L873 690L873 723L698 723L698 852L524 852L524 766L349 766L349 885L175 885L175 690L0 690Z" fill="#1e003d"></path></svg>