<svg id="visual" viewBox="0 0 1920 1080" width="1920" height="1080" xmlns="http://www.w3.org/2000/svg" xmlns:xlink="http://www.w3.org/1999/xlink" version="1.1"><path d="M0 754L45.7 744.7C91.3 735.3 182.7 716.7 274.2 710.7C365.7 704.7 457.3 711.3 548.8 718.8C640.3 726.3 731.7 734.7 823 741C914.3 747.3 1005.7 751.7 1097 735.8C1188.3 720 1279.7 684 1371.2 669.5C1462.7 655 1554.3 662 1645.8 659.5C1737.3 657 1828.7 645 1874.3 639L1920 633L1920 1081L1874.3 1081C1828.7 1081 1737.3 1081 1645.8 1081C1554.3 1081 1462.7 1081 1371.2 1081C1279.7 1081 1188.3 1081 1097 1081C1005.7 1081 914.3 1081 823 1081C731.7 1081 640.3 1081 548.8 1081C457.3 1081 365.7 1081 274.2 1081C182.7 1081 91.3 1081 45.7 1081L0 1081Z" fill="#e169fa"></path><path d="M0 789L45.7 773.7C91.3 758.3 182.7 727.7 274.2 717.5C365.7 707.3 457.3 717.7 548.8 736.7C640.3 755.7 731.7 783.3 823 786.7C914.3 790 1005.7 769 1097 758.3C1188.3 747.7 1279.7 747.3 1371.2 754.3C1462.7 761.3 1554.3 775.7 1645.8 764.7C1737.3 753.7 1828.7 717.3 1874.3 699.2L1920 681L1920 1081L1874.3 1081C1828.7 1081 1737.3 1081 1645.8 1081C1554.3 1081 1462.7 1081 1371.2 1081C1279.7 1081 1188.3 1081 1097 1081C1005.7 1081 914.3 1081 823 1081C731.7 1081 640.3 1081 548.8 1081C457.3 1081 365.7 1081 274.2 1081C182.7 1081 91.3 1081 45.7 1081L0 1081Z" fill="#c85be5"></path><path d="M0 828L45.7 824.5C91.3 821 182.7 814 274.2 816.8C365.7 819.7 457.3 832.3 548.8 831.7C640.3 831 731.7 817 823 803C914.3 789 1005.7 775 1097 771.2C1188.3 767.3 1279.7 773.7 1371.2 788C1462.7 802.3 1554.3 824.7 1645.8 817C1737.3 809.3 1828.7 771.7 1874.3 752.8L1920 734L1920 1081L1874.3 1081C1828.7 1081 1737.3 1081 1645.8 1081C1554.3 1081 1462.7 1081 1371.2 1081C1279.7 1081 1188.3 1081 1097 1081C1005.7 1081 914.3 1081 823 1081C731.7 1081 640.3 1081 548.8 1081C457.3 1081 365.7 1081 274.2 1081C182.7 1081 91.3 1081 45.7 1081L0 1081Z" fill="#af4ed0"></path><path d="M0 836L45.7 829.8C91.3 823.7 182.7 811.3 274.2 811.2C365.7 811 457.3 823 548.8 818.3C640.3 813.7 731.7 792.3 823 786.3C914.3 780.3 1005.7 789.7 1097 802.7C1188.3 815.7 1279.7 832.3 1371.2 828C1462.7 823.7 1554.3 798.3 1645.8 787.3C1737.3 776.3 1828.7 779.7 1874.3 781.3L1920 783L1920 1081L1874.3 1081C1828.7 1081 1737.3 1081 1645.8 1081C1554.3 1081 1462.7 1081 1371.2 1081C1279.7 1081 1188.3 1081 1097 1081C1005.7 1081 914.3 1081 823 1081C731.7 1081 640.3 1081 548.8 1081C457.3 1081 365.7 1081 274.2 1081C182.7 1081 91.3 1081 45.7 1081L0 1081Z" fill="#9740bb"></path><path d="M0 840L45.7 844.5C91.3 849 182.7 858 274.2 860.7C365.7 863.3 457.3 859.7 548.8 850.7C640.3 841.7 731.7 827.3 823 821.5C914.3 815.7 1005.7 818.3 1097 825C1188.3 831.7 1279.7 842.3 1371.2 845C1462.7 847.7 1554.3 842.3 1645.8 852.8C1737.3 863.3 1828.7 889.7 1874.3 902.8L1920 916L1920 1081L1874.3 1081C1828.7 1081 1737.3 1081 1645.8 1081C1554.3 1081 1462.7 1081 1371.2 1081C1279.7 1081 1188.3 1081 1097 1081C1005.7 1081 914.3 1081 823 1081C731.7 1081 640.3 1081 548.8 1081C457.3 1081 365.7 1081 274.2 1081C182.7 1081 91.3 1081 45.7 1081L0 1081Z" fill="#8033a6"></path><path d="M0 902L45.7 895.8C91.3 889.7 182.7 877.3 274.2 870.8C365.7 864.3 457.3 863.7 548.8 873.5C640.3 883.3 731.7 903.7 823 905.7C914.3 907.7 1005.7 891.3 1097 893.2C1188.3 895 1279.7 915 1371.2 917.3C1462.7 919.7 1554.3 904.3 1645.8 901.8C1737.3 899.3 1828.7 909.7 1874.3 914.8L1920 920L1920 1081L1874.3 1081C1828.7 1081 1737.3 1081 1645.8 1081C1554.3 1081 1462.7 1081 1371.2 1081C1279.7 1081 1188.3 1081 1097 1081C1005.7 1081 914.3 1081 823 1081C731.7 1081 640.3 1081 548.8 1081C457.3 1081 365.7 1081 274.2 1081C182.7 1081 91.3 1081 45.7 1081L0 1081Z" fill="#692691"></path><path d="M0 953L45.7 953C91.3 953 182.7 953 274.2 945.7C365.7 938.3 457.3 923.7 548.8 919.7C640.3 915.7 731.7 922.3 823 925.8C914.3 929.3 1005.7 929.7 1097 927.2C1188.3 924.7 1279.7 919.3 1371.2 919.7C1462.7 920 1554.3 926 1645.8 925.3C1737.3 924.7 1828.7 917.3 1874.3 913.7L1920 910L1920 1081L1874.3 1081C1828.7 1081 1737.3 1081 1645.8 1081C1554.3 1081 1462.7 1081 1371.2 1081C1279.7 1081 1188.3 1081 1097 1081C1005.7 1081 914.3 1081 823 1081C731.7 1081 640.3 1081 548.8 1081C457.3 1081 365.7 1081 274.2 1081C182.7 1081 91.3 1081 45.7 1081L0 1081Z" fill="#54197d"></path><path d="M0 1010L45.7 1001.7C91.3 993.3 182.7 976.7 274.2 975.3C365.7 974 457.3 988 548.8 991.5C640.3 995 731.7 988 823 984C914.3 980 1005.7 979 1097 980.8C1188.3 982.7 1279.7 987.3 1371.2 992.5C1462.7 997.7 1554.3 1003.3 1645.8 1006.5C1737.3 1009.7 1828.7 1010.3 1874.3 1010.7L1920 1011L1920 1081L1874.3 1081C1828.7 1081 1737.3 1081 1645.8 1081C1554.3 1081 1462.7 1081 1371.2 1081C1279.7 1081 1188.3 1081 1097 1081C1005.7 1081 914.3 1081 823 1081C731.7 1081 640.3 1081 548.8 1081C457.3 1081 365.7 1081 274.2 1081C182.7 1081 91.3 1081 45.7 1081L0 1081Z" fill="#3f0b69"></path><path d="M0 1013L45.7 1017.3C91.3 1021.7 182.7 1030.3 274.2 1036C365.7 1041.7 457.3 1044.3 548.8 1046.5C640.3 1048.7 731.7 1050.3 823 1043.8C914.3 1037.3 1005.7 1022.7 1097 1020.2C1188.3 1017.7 1279.7 1027.3 1371.2 1031.7C1462.7 1036 1554.3 1035 1645.8 1036.5C1737.3 1038 1828.7 1042 1874.3 1044L1920 1046L1920 1081L1874.3 1081C1828.7 1081 1737.3 1081 1645.8 1081C1554.3 1081 1462.7 1081 1371.2 1081C1279.7 1081 1188.3 1081 1097 1081C1005.7 1081 914.3 1081 823 1081C731.7 1081 640.3 1081 548.8 1081C457.3 1081 365.7 1081 274.2 1081C182.7 1081 91.3 1081 45.7 1081L0 1081Z" fill="#2a0056"></path></svg>